<?xml version="1.0" standalone="no"?><svg xmlns="http://www.w3.org/2000/svg" viewBox="0 0 1440 320"><path fill="rgb(236, 154, 0" fill-opacity="1" d="M0,256L16,256C32,256,64,256,96,224C128,192,160,128,192,90.7C224,53,256,43,288,69.3C320,96,352,160,384,192C416,224,448,224,480,208C512,192,544,160,576,165.3C608,171,640,213,672,229.3C704,245,736,235,768,213.3C800,192,832,160,864,138.7C896,117,928,107,960,112C992,117,1024,139,1056,176C1088,213,1120,267,1152,261.3C1184,256,1216,192,1248,144C1280,96,1312,64,1344,69.3C1376,75,1408,117,1424,138.7L1440,160L1440,0L1424,0C1408,0,1376,0,1344,0C1312,0,1280,0,1248,0C1216,0,1184,0,1152,0C1120,0,1088,0,1056,0C1024,0,992,0,960,0C928,0,896,0,864,0C832,0,800,0,768,0C736,0,704,0,672,0C640,0,608,0,576,0C544,0,512,0,480,0C448,0,416,0,384,0C352,0,320,0,288,0C256,0,224,0,192,0C160,0,128,0,96,0C64,0,32,0,16,0L0,0Z"></path></svg>