<?xml version="1.0" standalone="no"?>
<svg xmlns:xlink="http://www.w3.org/1999/xlink" id="wave" style="transform:rotate(180deg); transition: 0.3s" viewBox="0 0 1440 160" version="1.1" xmlns="http://www.w3.org/2000/svg"><defs><linearGradient id="sw-gradient-0" x1="0" x2="0" y1="1" y2="0"><stop stop-color="rgba(236, 154, 0, 1)" offset="0%"/><stop stop-color="rgba(236, 154, 0, 1)" offset="100%"/></linearGradient></defs><path style="transform:translate(0, 0px); opacity:1" fill="url(#sw-gradient-0)" d="M0,128L10,125.3C20,123,40,117,60,117.3C80,117,100,123,120,114.7C140,107,160,85,180,82.7C200,80,220,96,240,85.3C260,75,280,37,300,21.3C320,5,340,11,360,34.7C380,59,400,101,420,104C440,107,460,69,480,58.7C500,48,520,64,540,58.7C560,53,580,27,600,13.3C620,0,640,0,660,21.3C680,43,700,85,720,93.3C740,101,760,75,780,58.7C800,43,820,37,840,50.7C860,64,880,96,900,90.7C920,85,940,43,960,40C980,37,1000,75,1020,90.7C1040,107,1060,101,1080,82.7C1100,64,1120,32,1140,40C1160,48,1180,96,1200,112C1220,128,1240,112,1260,109.3C1280,107,1300,117,1320,117.3C1340,117,1360,107,1380,96C1400,85,1420,75,1430,69.3L1440,64L1440,160L1430,160C1420,160,1400,160,1380,160C1360,160,1340,160,1320,160C1300,160,1280,160,1260,160C1240,160,1220,160,1200,160C1180,160,1160,160,1140,160C1120,160,1100,160,1080,160C1060,160,1040,160,1020,160C1000,160,980,160,960,160C940,160,920,160,900,160C880,160,860,160,840,160C820,160,800,160,780,160C760,160,740,160,720,160C700,160,680,160,660,160C640,160,620,160,600,160C580,160,560,160,540,160C520,160,500,160,480,160C460,160,440,160,420,160C400,160,380,160,360,160C340,160,320,160,300,160C280,160,260,160,240,160C220,160,200,160,180,160C160,160,140,160,120,160C100,160,80,160,60,160C40,160,20,160,10,160L0,160Z"/></svg>